# xmcd
#
# Track frame offsets:
#	182
#	11982
#	24817
#	35562
#	48525
#	60032
#	73262
#	85017
#	100955
#	120550
#	135192
#	149587
#	168775
#	182187
#	199952
#	218642
#
# Disc length: 3094
#
# Revision: 1
# Processed by: cddbd v1.5.1PL0 Copyright (c) Steve Scherf et al.
# Submitted via: EZCDDA 4.3.3.2
# Normalized: r0:DSETVAR1,TDELIM( - )
#
DISCID=da0c1410
DTITLE=Various Artist - Country Friends [CD1)
DYEAR=1900
DGENRE=
TTITLE0=Patsy Cline - Sweet Dreams
TTITLE1=Don Williams - You're My Best Friend
TTITLE2=Dolly Parton - Love Is Like A Butterfly
TTITLE3=Marty Robbins - Devil Woman
TTITLE4=Crystal Gayle - Don't It Make My Brown Eyes Blue
TTITLE5=Charlie Rich - Behind Closed Doors
TTITLE6=Jim Reeves - Welcome To My World
TTITLE7=Billie Jo Spears - Blanket On The Ground
TTITLE8=Kenny Rogers - Coward Of The County
TTITLE9=Anne Murray - Could I Have This Dance
TTITLE10=Glen Campbell - Rhinestone Cowboy
TTITLE11=Bobby Gentry - Ode To Billy Joe
TTITLE12=Tammy Wynette - D.I.V.O.R.C.E
TTITLE13=Bobby Goldsboro - Honey
TTITLE14=Juice Newton - Angel Of The Morning
TTITLE15=Loreta Lynn - Coal Miner's Daughter
EXTD=
EXTT0=
EXTT1=
EXTT2=
EXTT3=
EXTT4=
EXTT5=
EXTT6=
EXTT7=
EXTT8=
EXTT9=
EXTT10=
EXTT11=
EXTT12=
EXTT13=
EXTT14=
EXTT15=
PLAYORDER=
